<?xml version="1.0" encoding="UTF-8" standalone="no"?>
<svg
   xmlns:dc="http://purl.org/dc/elements/1.1/"
   xmlns:cc="http://creativecommons.org/ns#"
   xmlns:rdf="http://www.w3.org/1999/02/22-rdf-syntax-ns#"
   xmlns:svg="http://www.w3.org/2000/svg"
   xmlns="http://www.w3.org/2000/svg"
   xmlns:sodipodi="http://sodipodi.sourceforge.net/DTD/sodipodi-0.dtd"
   xmlns:inkscape="http://www.inkscape.org/namespaces/inkscape"
   sodipodi:docname="Table.svg"
   inkscape:version="1.0 (4035a4fb49, 2020-05-01)"
   inkscape:export-ydpi="320"
   inkscape:export-xdpi="320"
   inkscape:export-filename="C:\Users\joeki\Documents\KTaNE Stuff\Unfinished\xelSpeedyPassword\ktanemodkit-master\Assets\Sprites\Undo.png"
   id="svg8"
   version="1.1"
   viewBox="0 0 210.27982 206.90941"
   height="206.90941mm"
   width="210.27982mm">
  <defs
     id="defs2">
    <rect
       id="rect869"
       height="17.386906"
       width="3.0238094"
       y="86.208206"
       x="40.630463" />
  </defs>
  <sodipodi:namedview
     inkscape:window-maximized="0"
     inkscape:window-y="206"
     inkscape:window-x="78"
     inkscape:window-height="1040"
     inkscape:window-width="1375"
     showgrid="false"
     inkscape:document-rotation="0"
     inkscape:current-layer="layer1"
     inkscape:document-units="mm"
     inkscape:cy="115.71281"
     inkscape:cx="503.50212"
     inkscape:zoom="0.35"
     inkscape:pageshadow="2"
     inkscape:pageopacity="0.0"
     borderopacity="1.0"
     bordercolor="#666666"
     pagecolor="#ffffff"
     id="base" />
  <metadata
     id="metadata5">
    <rdf:RDF>
      <cc:Work
         rdf:about="">
        <dc:format>image/svg+xml</dc:format>
        <dc:type
           rdf:resource="http://purl.org/dc/dcmitype/StillImage" />
        <dc:title></dc:title>
      </cc:Work>
    </rdf:RDF>
  </metadata>
  <g
     transform="translate(-18.26908,-33.85568)"
     id="layer1"
     inkscape:groupmode="layer"
     inkscape:label="Layer 1">
    <g
       style="font-size:16.9333px;line-height:1;font-family:Ethnocentric;-inkscape-font-specification:'Ethnocentric, Normal';letter-spacing:0.264583px;word-spacing:0.264583px;white-space:pre;shape-inside:url(#rect869)"
       id="text867" />
    <g
       transform="translate(-10.732728)"
       id="g1218">
      <g
         aria-label="→"
         transform="scale(0.99407699,1.0059583)"
         id="text835"
         style="font-size:58.2476px;line-height:1;font-family:Ethnocentric;-inkscape-font-specification:'Ethnocentric, Normal';letter-spacing:0.910118px;word-spacing:0.910118px;stroke-width:0.910118">
        <path
           d="m 71.807986,53.46442 v 2.559709 L 60.63059,67.201525 57.217645,63.78858 63.844447,57.161778 H 29.17461 V 52.326772 H 63.844447 L 57.217645,45.69997 60.63059,42.287024 Z"
           style="stroke-width:0.910118"
           id="path1207" />
      </g>
      <g
         aria-label="⮊"
         transform="scale(0.994077,1.0059583)"
         id="text835-0"
         style="font-style:normal;font-variant:normal;font-weight:normal;font-stretch:normal;font-size:58.2475px;line-height:1;font-family:Ethnocentric;-inkscape-font-specification:'Ethnocentric, Normal';font-variant-ligatures:normal;font-variant-caps:normal;font-variant-numeric:normal;font-variant-east-asian:normal;letter-spacing:0.910119px;word-spacing:0.910119px;stroke-width:0.910119">
        <path
           d="M 112.24706,54.673172 94.670417,37.153416 h -0.142206 v 4.778115 H 77.776366 q 1.422058,-1.877117 3.242292,-3.384498 1.820235,-1.535823 3.953322,-2.616587 2.161528,-1.109206 4.579027,-1.678029 2.44594,-0.597264 5.11941,-0.597264 3.043204,0 5.773553,0.767911 2.7588,0.73947 5.09097,2.104646 2.36062,1.365176 4.23773,3.299175 1.87712,1.933999 3.21386,4.266174 1.33673,2.332176 2.04776,5.034086 0.71103,2.701911 0.71103,5.602909 0,2.92944 -0.71103,5.63135 -0.71103,2.67347 -2.04776,5.034086 -1.33674,2.332176 -3.21386,4.266175 -1.87711,1.905558 -4.23773,3.299174 -2.33217,1.365176 -5.09097,2.133088 -2.730349,0.73947 -5.773553,0.73947 -2.67347,0 -5.11941,-0.597264 -2.417499,-0.568824 -4.579027,-1.649588 -2.133087,-1.080764 -3.953322,-2.588146 -1.820234,-1.535823 -3.242292,-3.44138 h 16.751845 v 4.778115 h 0.142206 L 112.24706,54.786936 Z"
           id="path1203" />
      </g>
      <g
         aria-label="⮞"
         transform="scale(0.994077,1.0059583)"
         id="text835-0-3"
         style="font-style:normal;font-variant:normal;font-weight:normal;font-stretch:normal;font-size:58.2475px;line-height:1;font-family:Ethnocentric;-inkscape-font-specification:'Ethnocentric, Normal';font-variant-ligatures:normal;font-variant-caps:normal;font-variant-numeric:normal;font-variant-east-asian:normal;letter-spacing:0.910119px;word-spacing:0.910119px;stroke-width:0.910119">
        <path
           d="M 124.7996,75.790733 161.26117,54.744273 124.7996,33.697812 136.97242,54.744273 Z"
           id="path1200" />
      </g>
      <g
         aria-label="🢖"
         transform="scale(0.994077,1.0059583)"
         id="text835-0-2"
         style="font-style:normal;font-variant:normal;font-weight:normal;font-stretch:normal;font-size:58.2475px;line-height:1;font-family:Ethnocentric;-inkscape-font-specification:'Ethnocentric, Normal';font-variant-ligatures:normal;font-variant-caps:normal;font-variant-numeric:normal;font-variant-east-asian:normal;letter-spacing:0.910119px;word-spacing:0.910119px;stroke-width:0.910119">
        <path
           d="m 180.86713,56.848921 v 14.760964 l 16.86561,-16.86561 -16.86561,-16.865609 v 14.760963 h 4.20929 v -4.607468 l 6.71211,6.712114 -6.71211,6.768997 v -4.664351 z"
           id="path1197" />
      </g>
    </g>
    <g
       transform="translate(-7.7609873,4.0517229)"
       id="g1248">
      <g
         aria-label="⇒
"
         transform="scale(0.994077,1.0059583)"
         id="text835-9"
         style="font-style:normal;font-variant:normal;font-weight:normal;font-stretch:normal;font-size:58.2475px;line-height:1;font-family:Ethnocentric;-inkscape-font-specification:'Ethnocentric, Normal';font-variant-ligatures:normal;font-variant-caps:normal;font-variant-numeric:normal;font-variant-east-asian:normal;letter-spacing:0.910119px;word-spacing:0.910119px;stroke-width:0.910119">
        <path
           d="m 60.286116,108.21896 2.986322,-2.98632 -2.986322,-2.98632 H 26.185162 v -3.412941 h 30.688015 l -2.645029,-2.645028 3.41294,-3.41294 11.177377,11.177379 v 2.5597 l -11.177377,11.17738 -3.41294,-3.41294 2.645029,-2.64503 H 26.185162 v -3.41294 z"
           id="path1194" />
      </g>
      <g
         aria-label="🠶"
         transform="scale(0.994077,1.0059583)"
         id="text835-0-5"
         style="font-style:normal;font-variant:normal;font-weight:normal;font-stretch:normal;font-size:58.2475px;line-height:1;font-family:Ethnocentric;-inkscape-font-specification:'Ethnocentric, Normal';font-variant-ligatures:normal;font-variant-caps:normal;font-variant-numeric:normal;font-variant-east-asian:normal;letter-spacing:0.910119px;word-spacing:0.910119px;stroke-width:0.910119">
        <path
           d="M 119.47271,105.23265 108.23845,93.998394 H 77.379786 v 22.468516 h 30.858664 z"
           id="path1191" />
      </g>
      <g
         aria-label="⯮"
         transform="scale(0.994077,1.0059583)"
         id="text835-0-3-8"
         style="font-style:normal;font-variant:normal;font-weight:normal;font-stretch:normal;font-size:58.2475px;line-height:1;font-family:Ethnocentric;-inkscape-font-specification:'Ethnocentric, Normal';font-variant-ligatures:normal;font-variant-caps:normal;font-variant-numeric:normal;font-variant-east-asian:normal;letter-spacing:0.910119px;word-spacing:0.910119px;stroke-width:0.910119">
        <path
           d="m 169.77143,105.57394 -15.98394,13.36735 v -13.36735 l -15.92705,13.36735 V 106.996 h -8.93052 v -3.52671 h 8.93052 V 91.524006 l 15.92705,13.367344 V 91.524006 l 15.92705,13.367344 z"
           id="path1188" />
      </g>
      <g
         aria-label="▶"
         transform="scale(0.994077,1.0059583)"
         id="text835-0-2-8"
         style="font-style:normal;font-variant:normal;font-weight:normal;font-stretch:normal;font-size:58.2475px;line-height:1;font-family:Ethnocentric;-inkscape-font-specification:'Ethnocentric, Normal';font-variant-ligatures:normal;font-variant-caps:normal;font-variant-numeric:normal;font-variant-east-asian:normal;letter-spacing:0.910119px;word-spacing:0.910119px;stroke-width:0.910119">
        <path
           d="M 178.04833,127.53052 V 82.934772 l 44.45354,22.297868 z"
           id="path1185" />
      </g>
    </g>
    <g
       transform="translate(-0.27744142,21.923977)"
       id="g1238">
      <g
         aria-label="➵"
         transform="scale(0.994077,1.0059583)"
         id="text835-9-2"
         style="font-style:normal;font-variant:normal;font-weight:normal;font-stretch:normal;font-size:58.2475px;line-height:1;font-family:Ethnocentric;-inkscape-font-specification:'Ethnocentric, Normal';font-variant-ligatures:normal;font-variant-caps:normal;font-variant-numeric:normal;font-variant-east-asian:normal;letter-spacing:0.910119px;word-spacing:0.910119px;stroke-width:0.910119">
        <path
           d="m 51.677217,140.8447 v -7.0534 q 4.379939,5.34693 9.613113,8.19105 -5.233174,2.84412 -9.613113,8.19106 V 143.12 H 41.438398 v -2.2753 z m -27.331958,2.33218 h 17.064698 l -5.688233,5.68823 H 18.657027 Z m 0,-2.33218 -5.688232,-5.68823 h 17.064697 l 5.688233,5.68823 z"
           id="path1182" />
      </g>
      <g
         aria-label="⮆"
         transform="scale(0.994077,1.0059583)"
         id="text835-0-5-8"
         style="font-style:normal;font-variant:normal;font-weight:normal;font-stretch:normal;font-size:58.2475px;line-height:1;font-family:Ethnocentric;-inkscape-font-specification:'Ethnocentric, Normal';font-variant-ligatures:normal;font-variant-caps:normal;font-variant-numeric:normal;font-variant-east-asian:normal;letter-spacing:0.910119px;word-spacing:0.910119px;stroke-width:0.910119">
        <path
           d="M 115.27218,152.50558 104.74895,142.153 v 8.24793 H 73.179255 v 4.20929 h 31.569695 v 8.41859 z m 0,-21.04646 -10.52323,-10.52323 v 8.41858 H 73.179255 v 4.20929 h 31.569695 v 8.30482 z"
           id="path1179" />
      </g>
      <g
         aria-label="⇢"
         transform="scale(0.994077,1.0059583)"
         id="text835-0-3-8-9"
         style="font-style:normal;font-variant:normal;font-weight:normal;font-stretch:normal;font-size:58.2475px;line-height:1;font-family:Ethnocentric;-inkscape-font-specification:'Ethnocentric, Normal';font-variant-ligatures:normal;font-variant-caps:normal;font-variant-numeric:normal;font-variant-east-asian:normal;letter-spacing:0.910119px;word-spacing:0.910119px;stroke-width:0.910119">
        <path
           d="m 169.79442,143.2622 -11.17737,11.17738 -3.41294,-3.41294 6.62679,-6.62679 h -10.49479 v -4.835 h 10.49479 l -6.62679,-6.62679 3.41294,-3.41294 11.17737,11.17738 z m -30.54581,-3.69735 h 7.2525 v 4.835 h -7.2525 z m -4.83499,0 v 4.835 h -7.2525 v -4.835 z"
           id="path1176" />
      </g>
      <g
         aria-label="🢂"
         transform="scale(0.994077,1.0059583)"
         id="text835-0-2-8-7"
         style="font-style:normal;font-variant:normal;font-weight:normal;font-stretch:normal;font-size:58.2475px;line-height:1;font-family:Ethnocentric;-inkscape-font-specification:'Ethnocentric, Normal';font-variant-ligatures:normal;font-variant-caps:normal;font-variant-numeric:normal;font-variant-east-asian:normal;letter-spacing:0.910119px;word-spacing:0.910119px;stroke-width:0.910119">
        <path
           d="m 230.18975,141.98235 -21.04646,-21.04646 h -19.85193 l 14.0215,14.02149 h -28.04299 v 14.04994 h 28.04299 l -14.0215,14.02149 h 19.85193 z"
           id="path1173" />
      </g>
    </g>
    <g
       transform="translate(0.27744143,35.983366)"
       id="g1228">
      <g
         aria-label="🠞"
         transform="scale(0.994077,1.0059583)"
         id="text835-9-2-6"
         style="font-style:normal;font-variant:normal;font-weight:normal;font-stretch:normal;font-size:58.2475px;line-height:1;font-family:Ethnocentric;-inkscape-font-specification:'Ethnocentric, Normal';font-variant-ligatures:normal;font-variant-caps:normal;font-variant-numeric:normal;font-variant-east-asian:normal;letter-spacing:0.910119px;word-spacing:0.910119px;stroke-width:0.910119">
        <path
           d="M 60.191758,182.52234 31.039567,165.68517 v 12.62788 H 18.098838 v 8.41858 h 12.940729 v 12.62788 z"
           id="path1170" />
      </g>
      <g
         aria-label="🠾"
         transform="scale(0.994077,1.0059583)"
         id="text835-0-5-8-8"
         style="font-style:normal;font-variant:normal;font-weight:normal;font-stretch:normal;font-size:58.2475px;line-height:1;font-family:Ethnocentric;-inkscape-font-specification:'Ethnocentric, Normal';font-variant-ligatures:normal;font-variant-caps:normal;font-variant-numeric:normal;font-variant-east-asian:normal;letter-spacing:0.910119px;word-spacing:0.910119px;stroke-width:0.910119">
        <path
           d="m 98.270268,182.52234 -10.52323,-21.04646 v 10.52323 h -5.261615 v 21.04646 h 5.261615 v 10.52323 z"
           id="path1167" />
      </g>
      <g
         aria-label="⟴"
         transform="scale(0.9470766,1.0558808)"
         id="text835-0-3-8-9-0"
         style="font-style:normal;font-variant:normal;font-weight:normal;font-stretch:normal;font-size:49.3267px;line-height:1;font-family:Ethnocentric;-inkscape-font-specification:'Ethnocentric, Normal';font-variant-ligatures:normal;font-variant-caps:normal;font-variant-numeric:normal;font-variant-east-asian:normal;letter-spacing:0.770731px;word-spacing:0.770731px;stroke-width:0.770731">
        <path
           d="m 174.56589,172.84489 v 2.16768 l -9.46553,9.46552 -2.89023,-2.89023 5.61187,-5.61188 h -8.47803 q -0.26493,2.16768 -1.05975,4.11859 -1.18018,2.84206 -3.56462,5.22651 -2.36036,2.36036 -5.22651,3.56462 -2.86615,1.20427 -6.18993,1.20427 -3.32377,0 -6.18992,-1.20427 -2.86615,-1.20426 -5.22651,-3.56462 -2.38444,-2.38445 -3.56462,-5.22651 -0.79482,-1.95091 -1.05976,-4.11859 h -4.55212 v -4.0945 h 4.55212 q 0.24086,-2.19176 1.05976,-4.16676 1.18018,-2.86615 3.56462,-5.25059 2.36036,-2.36036 5.22651,-3.56463 2.86615,-1.20426 6.18992,-1.20426 3.32378,0 6.18993,1.20426 2.86615,1.20427 5.22651,3.56463 2.38444,2.38444 3.56462,5.25059 0.8189,1.975 1.05975,4.16676 h 8.47803 l -5.61187,-5.61188 2.89023,-2.89023 z m -26.44567,-10.59753 q -2.23993,-0.93933 -4.81706,-0.93933 -2.57712,0 -4.81706,0.93933 -2.21584,0.93933 -4.04633,2.76981 -1.85457,1.85457 -2.76981,4.07042 -0.55396,1.32469 -0.77073,2.79389 h 10.35668 v -8.59845 h 4.0945 v 8.59845 h 10.35668 q -0.21676,-1.4692 -0.77073,-2.79389 -0.91524,-2.21585 -2.76981,-4.07042 -1.83048,-1.83048 -4.04633,-2.76981 z m 7.58687,13.72862 h -10.35668 v 8.59845 h -4.0945 v -8.59845 h -10.35668 q 0.24086,1.42103 0.77073,2.72164 0.91524,2.21585 2.76981,4.07042 1.83049,1.83048 4.04633,2.76981 2.23994,0.93932 4.81706,0.93932 2.57713,0 4.81706,-0.93932 2.21585,-0.93933 4.04633,-2.76981 1.85457,-1.85457 2.76981,-4.07042 0.52988,-1.30061 0.77073,-2.72164 z"
           style="stroke-width:0.770731"
           id="path1164" />
      </g>
      <g
         aria-label="→"
         transform="scale(0.994077,1.0059583)"
         id="text835-0-2-8-7-9"
         style="font-size:58.2475px;line-height:1;font-family:Ethnocentric;-inkscape-font-specification:'Ethnocentric, Normal';letter-spacing:0.910119px;word-spacing:0.910119px;stroke-width:0.910119">
        <path
           d="m 214.15957,181.24249 v 2.55971 l -11.17737,11.17737 -3.41294,-3.41294 6.62679,-6.62679 h -34.66978 v -4.83499 h 34.66978 l -6.62679,-6.6268 3.41294,-3.41294 z"
           style="stroke-width:0.910119"
           id="path1161" />
      </g>
    </g>
  </g>
</svg>
